<svg width="344" height="72" viewBox="0 0 344 72" fill="none" xmlns="http://www.w3.org/2000/svg">
<path d="M13.3418 31.3691L19.5508 22.7539H24.2129L15.5547 34.248L24.4492 46H19.8516L13.4277 37.1484L7.00391 46H2.36328L11.2578 34.248L2.59961 22.7539H7.19727L13.3418 31.3691ZM30.7871 13H42.668V42.5625H50.252V46H30.7871V42.5625H38.6934V16.459H30.7871V13Z" fill="#007936"/>
<path d="M75.8828 49.2441H56.1816V46H75.8828V49.2441ZM181.586 49.2441H161.885V46H181.586V49.2441ZM232.525 33.9473H216.09V30.6816H232.525V33.9473ZM287.289 49.2441H267.588V46H287.289V49.2441Z" fill="#6D6D6D"/>
<path d="M84.2402 31.4551L91.1152 14.7188H93.8438L100.697 31.4551H97.0234L92.7695 21.0137L92.4473 19.5527L92.125 21.0137L87.9355 31.4551H84.2402ZM117.434 43.4219C117.434 42.5768 117.691 41.8535 118.207 41.252C118.723 40.6504 119.503 40.3496 120.549 40.3496C121.58 40.3496 122.361 40.6504 122.891 41.252C123.435 41.8392 123.707 42.5625 123.707 43.4219C123.707 44.2669 123.435 44.9759 122.891 45.5488C122.346 46.1217 121.566 46.4082 120.549 46.4082C119.518 46.4082 118.737 46.1217 118.207 45.5488C117.691 44.9616 117.434 44.2526 117.434 43.4219ZM117.434 24.6016C117.434 23.7565 117.691 23.0332 118.207 22.4316C118.723 21.8301 119.503 21.5293 120.549 21.5293C121.58 21.5293 122.361 21.8301 122.891 22.4316C123.435 23.0189 123.707 23.7422 123.707 24.6016C123.707 25.4466 123.435 26.1556 122.891 26.7285C122.346 27.3014 121.566 27.5879 120.549 27.5879C119.518 27.5879 118.737 27.3014 118.207 26.7285C117.691 26.1413 117.434 25.4323 117.434 24.6016ZM139.842 26.2129C140.157 25.7402 140.508 25.3105 140.895 24.9238C141.281 24.5228 141.689 24.1719 142.119 23.8711C142.807 23.3698 143.559 22.9902 144.375 22.7324C145.206 22.4746 146.087 22.3385 147.018 22.3242C148.235 22.3242 149.338 22.5033 150.326 22.8613C151.329 23.2051 152.181 23.7493 152.883 24.4941C153.585 25.2389 154.122 26.1842 154.494 27.3301C154.881 28.4616 155.074 29.8079 155.074 31.3691V46H151.1V31.3262C151.1 30.4095 150.992 29.6074 150.777 28.9199C150.562 28.2181 150.247 27.638 149.832 27.1797C149.388 26.6784 148.829 26.306 148.156 26.0625C147.483 25.8047 146.71 25.6829 145.836 25.6973C145.12 25.6973 144.439 25.7975 143.795 25.998C143.15 26.1986 142.556 26.485 142.012 26.8574C141.582 27.1439 141.181 27.4805 140.809 27.8672C140.451 28.2396 140.128 28.6549 139.842 29.1133V46H135.867V13H139.842V26.2129ZM309.697 46C309.54 45.6992 309.411 45.3268 309.311 44.8828C309.225 44.4245 309.16 43.9518 309.117 43.4648C308.716 43.8659 308.265 44.2454 307.764 44.6035C307.277 44.9616 306.74 45.2767 306.152 45.5488C305.551 45.821 304.913 46.0358 304.24 46.1934C303.567 46.3509 302.851 46.4297 302.092 46.4297C300.86 46.4297 299.743 46.2507 298.74 45.8926C297.752 45.5345 296.914 45.0475 296.227 44.4316C295.525 43.8301 294.98 43.1139 294.594 42.2832C294.221 41.4382 294.035 40.5286 294.035 39.5547C294.035 38.2799 294.286 37.1628 294.787 36.2031C295.303 35.2435 296.026 34.4414 296.957 33.7969C297.888 33.1667 299.005 32.694 300.309 32.3789C301.626 32.0638 303.094 31.9062 304.713 31.9062H309.053V30.0801C309.053 29.3783 308.924 28.748 308.666 28.1895C308.408 27.6309 308.043 27.151 307.57 26.75C307.098 26.3633 306.518 26.0625 305.83 25.8477C305.157 25.6328 304.398 25.5254 303.553 25.5254C302.765 25.5254 302.056 25.6257 301.426 25.8262C300.81 26.0267 300.287 26.2917 299.857 26.6211C299.428 26.9505 299.091 27.3444 298.848 27.8027C298.618 28.2467 298.504 28.7122 298.504 29.1992H294.508C294.522 28.3542 294.737 27.5234 295.152 26.707C295.582 25.8906 296.198 25.153 297 24.4941C297.788 23.8496 298.747 23.3268 299.879 22.9258C301.025 22.5247 302.321 22.3242 303.768 22.3242C305.085 22.3242 306.31 22.4889 307.441 22.8184C308.573 23.1335 309.554 23.6133 310.385 24.2578C311.201 24.9167 311.846 25.7331 312.318 26.707C312.791 27.681 313.027 28.8197 313.027 30.123V40.9297C313.027 41.7031 313.099 42.5267 313.242 43.4004C313.385 44.2598 313.586 45.0117 313.844 45.6562V46H309.697ZM302.672 42.9707C303.445 42.9707 304.169 42.8704 304.842 42.6699C305.515 42.4694 306.131 42.2044 306.689 41.875C307.234 41.5456 307.706 41.1732 308.107 40.7578C308.508 40.3281 308.824 39.8841 309.053 39.4258V34.7207H305.357C303.982 34.7207 302.779 34.8424 301.748 35.0859C300.731 35.3151 299.922 35.6732 299.32 36.1602C298.891 36.5039 298.561 36.9121 298.332 37.3848C298.117 37.8574 298.01 38.3945 298.01 38.9961C298.01 39.569 298.103 40.099 298.289 40.5859C298.49 41.0729 298.783 41.4883 299.17 41.832C299.557 42.1901 300.044 42.4694 300.631 42.6699C301.218 42.8704 301.898 42.9707 302.672 42.9707ZM326.777 46V25.8262H320.375V22.7539H326.777V21.1211C326.777 19.6315 326.992 18.3281 327.422 17.2109C327.866 16.0794 328.489 15.1341 329.291 14.375C330.079 13.6159 331.031 13.043 332.148 12.6562C333.266 12.2695 334.512 12.0762 335.887 12.0762C336.46 12.0762 337.025 12.112 337.584 12.1836C338.143 12.2409 338.694 12.3197 339.238 12.4199C339.596 12.4915 339.954 12.5703 340.312 12.6562C340.671 12.7279 341.036 12.8138 341.408 12.9141L340.936 16.2012C340.348 16.0007 339.661 15.8288 338.873 15.6855C338.1 15.528 337.269 15.4492 336.381 15.4492C335.479 15.4492 334.676 15.5638 333.975 15.793C333.287 16.0078 332.714 16.3372 332.256 16.7812C331.769 17.2396 331.396 17.834 331.139 18.5645C330.895 19.2949 330.773 20.1471 330.773 21.1211V22.7539H339.732V25.8262H330.773V46H326.777Z" fill="#872BFF"/>
<path d="M188.311 46V14.7188H195.551C196.768 14.7331 197.914 14.862 198.988 15.1055C200.077 15.3346 201.079 15.6641 201.996 16.0938C203.271 16.681 204.395 17.4544 205.369 18.4141C206.357 19.3594 207.145 20.4551 207.732 21.7012C208.262 22.7611 208.663 23.9212 208.936 25.1816C209.222 26.4421 209.372 27.7884 209.387 29.2207V31.5195C209.387 32.8945 209.251 34.1979 208.979 35.4297C208.721 36.6615 208.341 37.793 207.84 38.8242C207.324 39.8984 206.673 40.8724 205.885 41.7461C205.097 42.6198 204.216 43.3646 203.242 43.9805C202.211 44.625 201.044 45.1191 199.74 45.4629C198.451 45.8066 197.055 45.9857 195.551 46H188.311ZM192.35 17.9844V42.7559H195.551C196.697 42.7415 197.735 42.5983 198.666 42.3262C199.611 42.054 200.449 41.6673 201.18 41.166C201.953 40.6504 202.619 40.0202 203.178 39.2754C203.751 38.5163 204.202 37.6712 204.531 36.7402C204.818 35.9811 205.033 35.1647 205.176 34.291C205.319 33.403 205.398 32.4792 205.412 31.5195V29.1777C205.398 28.2038 205.312 27.2728 205.154 26.3848C205.011 25.4824 204.789 24.6445 204.488 23.8711C204.102 22.8685 203.579 21.9661 202.92 21.1641C202.275 20.3477 201.48 19.6888 200.535 19.1875C199.862 18.8151 199.11 18.5286 198.279 18.3281C197.449 18.1133 196.539 17.9987 195.551 17.9844H192.35Z" fill="#D30038"/>
<path d="M247.5 46V25.8262H241.098V22.7539H247.5V21.1211C247.5 19.6315 247.715 18.3281 248.145 17.2109C248.589 16.0794 249.212 15.1341 250.014 14.375C250.801 13.6159 251.754 13.043 252.871 12.6562C253.988 12.2695 255.234 12.0762 256.609 12.0762C257.182 12.0762 257.748 12.112 258.307 12.1836C258.865 12.2409 259.417 12.3197 259.961 12.4199C260.319 12.4915 260.677 12.5703 261.035 12.6562C261.393 12.7279 261.758 12.8138 262.131 12.9141L261.658 16.2012C261.071 16.0007 260.383 15.8288 259.596 15.6855C258.822 15.528 257.992 15.4492 257.104 15.4492C256.201 15.4492 255.399 15.5638 254.697 15.793C254.01 16.0078 253.437 16.3372 252.979 16.7812C252.492 17.2396 252.119 17.834 251.861 18.5645C251.618 19.2949 251.496 20.1471 251.496 21.1211V22.7539H260.455V25.8262H251.496V46H247.5Z" fill="black"/>
<path d="M31.8027 67H30.1768V56.2773L26.8281 57.5518V56.0664L31.6709 54.2031H31.8027V67Z" fill="black"/>
<path d="M195.428 59.8193H196.588C196.998 59.8193 197.358 59.7637 197.669 59.6523C197.985 59.541 198.252 59.3887 198.469 59.1953C198.68 59.002 198.841 58.7705 198.952 58.501C199.063 58.2314 199.119 57.9355 199.119 57.6133C199.119 57.2324 199.069 56.9014 198.97 56.6201C198.87 56.333 198.724 56.0957 198.53 55.9082C198.343 55.7266 198.108 55.5918 197.827 55.5039C197.552 55.4102 197.235 55.3633 196.878 55.3633C196.532 55.3633 196.216 55.416 195.929 55.5215C195.647 55.6211 195.407 55.7676 195.208 55.9609C195.003 56.1543 194.845 56.3857 194.733 56.6553C194.622 56.9248 194.566 57.2266 194.566 57.5605H192.932C192.932 57.0742 193.025 56.6172 193.213 56.1895C193.406 55.7559 193.676 55.3779 194.021 55.0557C194.367 54.7393 194.78 54.4902 195.261 54.3086C195.747 54.1211 196.286 54.0273 196.878 54.0273C197.452 54.0273 197.977 54.1064 198.451 54.2646C198.926 54.417 199.333 54.6455 199.673 54.9502C200.013 55.2549 200.276 55.6328 200.464 56.084C200.651 56.5352 200.745 57.0566 200.745 57.6484C200.745 57.8945 200.707 58.1494 200.631 58.4131C200.555 58.6768 200.438 58.9316 200.279 59.1777C200.121 59.4297 199.916 59.667 199.664 59.8896C199.418 60.1064 199.122 60.2881 198.776 60.4346C199.192 60.5693 199.538 60.7451 199.813 60.9619C200.095 61.1787 200.32 61.4219 200.49 61.6914C200.654 61.9609 200.769 62.2451 200.833 62.5439C200.903 62.8428 200.938 63.1387 200.938 63.4316C200.938 64.0293 200.836 64.5596 200.631 65.0225C200.426 65.4854 200.142 65.875 199.778 66.1914C199.415 66.5137 198.984 66.7598 198.486 66.9297C197.994 67.0938 197.461 67.1758 196.887 67.1758C196.324 67.1758 195.794 67.0967 195.296 66.9385C194.804 66.7803 194.376 66.5488 194.013 66.2441C193.649 65.9395 193.359 65.5674 193.143 65.1279C192.932 64.6885 192.826 64.1875 192.826 63.625H194.452C194.452 63.959 194.508 64.2637 194.619 64.5391C194.736 64.8145 194.9 65.0488 195.111 65.2422C195.322 65.4355 195.577 65.585 195.876 65.6904C196.181 65.7959 196.518 65.8486 196.887 65.8486C197.256 65.8486 197.59 65.8018 197.889 65.708C198.188 65.6084 198.442 65.459 198.653 65.2598C198.864 65.0605 199.025 64.8145 199.137 64.5215C199.254 64.2227 199.312 63.8711 199.312 63.4668C199.312 63.0684 199.245 62.7256 199.11 62.4385C198.981 62.1455 198.8 61.9023 198.565 61.709C198.325 61.5156 198.035 61.3721 197.695 61.2783C197.361 61.1846 196.992 61.1377 196.588 61.1377H195.428V59.8193Z" fill="black"/>
<path d="M252.121 62.7021H253.905V64.0293H252.121V67H250.495V64.0293H244.659V63.0713L250.39 54.2031H252.121V62.7021ZM246.461 62.7021H250.495V56.3652L250.231 56.8574L246.461 62.7021Z" fill="black"/>
<path d="M314.109 60.584L314.751 54.2031H321.316V55.7852H316.122L315.762 59.1953C316.014 59.0488 316.315 58.9199 316.667 58.8086C317.019 58.6973 317.426 58.6416 317.889 58.6416C318.48 58.6416 319.011 58.7441 319.479 58.9492C319.948 59.1543 320.347 59.4414 320.675 59.8105C321.003 60.1855 321.255 60.6367 321.431 61.1641C321.606 61.6914 321.694 62.2773 321.694 62.9219C321.694 63.5312 321.612 64.0967 321.448 64.6182C321.284 65.1396 321.038 65.5879 320.71 65.9629C320.376 66.3438 319.957 66.6426 319.453 66.8594C318.949 67.0703 318.357 67.1758 317.678 67.1758C317.156 67.1758 316.664 67.1025 316.201 66.9561C315.738 66.8096 315.328 66.5898 314.971 66.2969C314.607 66.0039 314.309 65.6348 314.074 65.1895C313.846 64.7441 313.702 64.2256 313.644 63.6338H315.19C315.29 64.3604 315.557 64.9111 315.99 65.2861C316.43 65.6611 316.992 65.8486 317.678 65.8486C318.064 65.8486 318.407 65.7812 318.706 65.6465C319.005 65.5059 319.257 65.3066 319.462 65.0488C319.661 64.7969 319.811 64.4922 319.91 64.1348C320.016 63.7773 320.068 63.3789 320.068 62.9395C320.068 62.541 320.01 62.1689 319.893 61.8232C319.781 61.4775 319.617 61.1758 319.4 60.918C319.184 60.666 318.917 60.4668 318.601 60.3203C318.284 60.1738 317.921 60.1006 317.511 60.1006C317.241 60.1006 317.007 60.1211 316.808 60.1621C316.614 60.1973 316.438 60.25 316.28 60.3203C316.122 60.3906 315.973 60.4756 315.832 60.5752C315.697 60.6748 315.557 60.7891 315.41 60.918L314.109 60.584Z" fill="black"/>
<path d="M124.378 67H115.993V65.8311L120.186 61.1729C120.561 60.7568 120.874 60.3877 121.126 60.0654C121.378 59.7432 121.58 59.4443 121.732 59.1689C121.885 58.8994 121.993 58.6445 122.058 58.4043C122.122 58.1582 122.154 57.9062 122.154 57.6484C122.154 57.332 122.102 57.0361 121.996 56.7607C121.896 56.4795 121.75 56.2363 121.557 56.0312C121.357 55.8262 121.117 55.665 120.836 55.5479C120.561 55.4248 120.247 55.3633 119.896 55.3633C119.468 55.3633 119.096 55.4248 118.779 55.5479C118.469 55.6709 118.211 55.8438 118.006 56.0664C117.795 56.2949 117.637 56.5703 117.531 56.8926C117.432 57.2148 117.382 57.5752 117.382 57.9736H115.747C115.747 57.4346 115.841 56.9277 116.028 56.4531C116.216 55.9727 116.488 55.5537 116.846 55.1963C117.197 54.8389 117.628 54.5547 118.138 54.3438C118.653 54.1328 119.239 54.0273 119.896 54.0273C120.499 54.0273 121.041 54.1182 121.521 54.2998C122.008 54.4756 122.418 54.7217 122.752 55.0381C123.086 55.3545 123.341 55.7295 123.517 56.1631C123.698 56.5967 123.789 57.0684 123.789 57.5781C123.789 57.959 123.725 58.3369 123.596 58.7119C123.467 59.0811 123.294 59.4473 123.077 59.8105C122.854 60.1738 122.597 60.5342 122.304 60.8916C122.017 61.2432 121.712 61.5947 121.39 61.9463L117.953 65.6729H124.378V67Z" fill="black"/>
</svg>
